<?xml version="1.0" encoding="utf-8"?>
<svg xmlns="http://www.w3.org/2000/svg" xmlns:xlink="http://www.w3.org/1999/xlink" width="600" height="400" viewBox="0 0 2400 1600">
<defs>
  <clipPath id="clip7500">
    <rect x="0" y="0" width="2400" height="1600"/>
  </clipPath>
</defs>
<path clip-path="url(#clip7500)" d="
M0 1600 L2400 1600 L2400 0 L0 0  Z
  " fill="#000000" fill-rule="evenodd" fill-opacity="0"/>
<defs>
  <clipPath id="clip7501">
    <rect x="480" y="0" width="1681" height="1600"/>
  </clipPath>
</defs>
<path clip-path="url(#clip7500)" d="
M113.754 1487.47 L2352.76 1487.47 L2352.76 47.2441 L113.754 47.2441  Z
  " fill="#000000" fill-rule="evenodd" fill-opacity="0"/>
<defs>
  <clipPath id="clip7502">
    <rect x="113" y="47" width="2240" height="1441"/>
  </clipPath>
</defs>
<polyline clip-path="url(#clip7502)" style="stroke:#000000; stroke-width:2; stroke-opacity:0.1; fill:none" points="
  177.122,1487.47 177.122,47.2441 
  "/>
<polyline clip-path="url(#clip7502)" style="stroke:#000000; stroke-width:2; stroke-opacity:0.1; fill:none" points="
  529.167,1487.47 529.167,47.2441 
  "/>
<polyline clip-path="url(#clip7502)" style="stroke:#000000; stroke-width:2; stroke-opacity:0.1; fill:none" points="
  881.211,1487.47 881.211,47.2441 
  "/>
<polyline clip-path="url(#clip7502)" style="stroke:#000000; stroke-width:2; stroke-opacity:0.1; fill:none" points="
  1233.26,1487.47 1233.26,47.2441 
  "/>
<polyline clip-path="url(#clip7502)" style="stroke:#000000; stroke-width:2; stroke-opacity:0.1; fill:none" points="
  1585.3,1487.47 1585.3,47.2441 
  "/>
<polyline clip-path="url(#clip7502)" style="stroke:#000000; stroke-width:2; stroke-opacity:0.1; fill:none" points="
  1937.34,1487.47 1937.34,47.2441 
  "/>
<polyline clip-path="url(#clip7502)" style="stroke:#000000; stroke-width:2; stroke-opacity:0.1; fill:none" points="
  2289.39,1487.47 2289.39,47.2441 
  "/>
<polyline clip-path="url(#clip7502)" style="stroke:#000000; stroke-width:2; stroke-opacity:0.1; fill:none" points="
  113.754,1446.71 2352.76,1446.71 
  "/>
<polyline clip-path="url(#clip7502)" style="stroke:#000000; stroke-width:2; stroke-opacity:0.1; fill:none" points="
  113.754,1220.26 2352.76,1220.26 
  "/>
<polyline clip-path="url(#clip7502)" style="stroke:#000000; stroke-width:2; stroke-opacity:0.1; fill:none" points="
  113.754,993.811 2352.76,993.811 
  "/>
<polyline clip-path="url(#clip7502)" style="stroke:#000000; stroke-width:2; stroke-opacity:0.1; fill:none" points="
  113.754,767.359 2352.76,767.359 
  "/>
<polyline clip-path="url(#clip7502)" style="stroke:#000000; stroke-width:2; stroke-opacity:0.1; fill:none" points="
  113.754,540.908 2352.76,540.908 
  "/>
<polyline clip-path="url(#clip7502)" style="stroke:#000000; stroke-width:2; stroke-opacity:0.1; fill:none" points="
  113.754,314.457 2352.76,314.457 
  "/>
<polyline clip-path="url(#clip7502)" style="stroke:#000000; stroke-width:2; stroke-opacity:0.1; fill:none" points="
  113.754,88.0053 2352.76,88.0053 
  "/>
<polyline clip-path="url(#clip7500)" style="stroke:#000000; stroke-width:4; stroke-opacity:1; fill:none" points="
  113.754,1487.47 2352.76,1487.47 
  "/>
<polyline clip-path="url(#clip7500)" style="stroke:#000000; stroke-width:4; stroke-opacity:1; fill:none" points="
  113.754,1487.47 113.754,47.2441 
  "/>
<polyline clip-path="url(#clip7500)" style="stroke:#000000; stroke-width:4; stroke-opacity:1; fill:none" points="
  177.122,1487.47 177.122,1470.19 
  "/>
<polyline clip-path="url(#clip7500)" style="stroke:#000000; stroke-width:4; stroke-opacity:1; fill:none" points="
  529.167,1487.47 529.167,1470.19 
  "/>
<polyline clip-path="url(#clip7500)" style="stroke:#000000; stroke-width:4; stroke-opacity:1; fill:none" points="
  881.211,1487.47 881.211,1470.19 
  "/>
<polyline clip-path="url(#clip7500)" style="stroke:#000000; stroke-width:4; stroke-opacity:1; fill:none" points="
  1233.26,1487.47 1233.26,1470.19 
  "/>
<polyline clip-path="url(#clip7500)" style="stroke:#000000; stroke-width:4; stroke-opacity:1; fill:none" points="
  1585.3,1487.47 1585.3,1470.19 
  "/>
<polyline clip-path="url(#clip7500)" style="stroke:#000000; stroke-width:4; stroke-opacity:1; fill:none" points="
  1937.34,1487.47 1937.34,1470.19 
  "/>
<polyline clip-path="url(#clip7500)" style="stroke:#000000; stroke-width:4; stroke-opacity:1; fill:none" points="
  2289.39,1487.47 2289.39,1470.19 
  "/>
<polyline clip-path="url(#clip7500)" style="stroke:#000000; stroke-width:4; stroke-opacity:1; fill:none" points="
  113.754,1446.71 140.622,1446.71 
  "/>
<polyline clip-path="url(#clip7500)" style="stroke:#000000; stroke-width:4; stroke-opacity:1; fill:none" points="
  113.754,1220.26 140.622,1220.26 
  "/>
<polyline clip-path="url(#clip7500)" style="stroke:#000000; stroke-width:4; stroke-opacity:1; fill:none" points="
  113.754,993.811 140.622,993.811 
  "/>
<polyline clip-path="url(#clip7500)" style="stroke:#000000; stroke-width:4; stroke-opacity:1; fill:none" points="
  113.754,767.359 140.622,767.359 
  "/>
<polyline clip-path="url(#clip7500)" style="stroke:#000000; stroke-width:4; stroke-opacity:1; fill:none" points="
  113.754,540.908 140.622,540.908 
  "/>
<polyline clip-path="url(#clip7500)" style="stroke:#000000; stroke-width:4; stroke-opacity:1; fill:none" points="
  113.754,314.457 140.622,314.457 
  "/>
<polyline clip-path="url(#clip7500)" style="stroke:#000000; stroke-width:4; stroke-opacity:1; fill:none" points="
  113.754,88.0053 140.622,88.0053 
  "/>
<g clip-path="url(#clip7500)">
<text style="fill:#000000; fill-opacity:1; font-family:Arial,Helvetica Neue,Helvetica,sans-serif; font-size:48px; text-anchor:middle;" transform="rotate(0, 177.122, 1541.47)" x="177.122" y="1541.47">1</text>
</g>
<g clip-path="url(#clip7500)">
<text style="fill:#000000; fill-opacity:1; font-family:Arial,Helvetica Neue,Helvetica,sans-serif; font-size:48px; text-anchor:middle;" transform="rotate(0, 529.167, 1541.47)" x="529.167" y="1541.47">2</text>
</g>
<g clip-path="url(#clip7500)">
<text style="fill:#000000; fill-opacity:1; font-family:Arial,Helvetica Neue,Helvetica,sans-serif; font-size:48px; text-anchor:middle;" transform="rotate(0, 881.211, 1541.47)" x="881.211" y="1541.47">3</text>
</g>
<g clip-path="url(#clip7500)">
<text style="fill:#000000; fill-opacity:1; font-family:Arial,Helvetica Neue,Helvetica,sans-serif; font-size:48px; text-anchor:middle;" transform="rotate(0, 1233.26, 1541.47)" x="1233.26" y="1541.47">4</text>
</g>
<g clip-path="url(#clip7500)">
<text style="fill:#000000; fill-opacity:1; font-family:Arial,Helvetica Neue,Helvetica,sans-serif; font-size:48px; text-anchor:middle;" transform="rotate(0, 1585.3, 1541.47)" x="1585.3" y="1541.47">5</text>
</g>
<g clip-path="url(#clip7500)">
<text style="fill:#000000; fill-opacity:1; font-family:Arial,Helvetica Neue,Helvetica,sans-serif; font-size:48px; text-anchor:middle;" transform="rotate(0, 1937.34, 1541.47)" x="1937.34" y="1541.47">6</text>
</g>
<g clip-path="url(#clip7500)">
<text style="fill:#000000; fill-opacity:1; font-family:Arial,Helvetica Neue,Helvetica,sans-serif; font-size:48px; text-anchor:middle;" transform="rotate(0, 2289.39, 1541.47)" x="2289.39" y="1541.47">7</text>
</g>
<g clip-path="url(#clip7500)">
<text style="fill:#000000; fill-opacity:1; font-family:Arial,Helvetica Neue,Helvetica,sans-serif; font-size:48px; text-anchor:end;" transform="rotate(0, 89.7545, 1464.21)" x="89.7545" y="1464.21">2</text>
</g>
<g clip-path="url(#clip7500)">
<text style="fill:#000000; fill-opacity:1; font-family:Arial,Helvetica Neue,Helvetica,sans-serif; font-size:48px; text-anchor:end;" transform="rotate(0, 89.7545, 1237.76)" x="89.7545" y="1237.76">3</text>
</g>
<g clip-path="url(#clip7500)">
<text style="fill:#000000; fill-opacity:1; font-family:Arial,Helvetica Neue,Helvetica,sans-serif; font-size:48px; text-anchor:end;" transform="rotate(0, 89.7545, 1011.31)" x="89.7545" y="1011.31">4</text>
</g>
<g clip-path="url(#clip7500)">
<text style="fill:#000000; fill-opacity:1; font-family:Arial,Helvetica Neue,Helvetica,sans-serif; font-size:48px; text-anchor:end;" transform="rotate(0, 89.7545, 784.859)" x="89.7545" y="784.859">5</text>
</g>
<g clip-path="url(#clip7500)">
<text style="fill:#000000; fill-opacity:1; font-family:Arial,Helvetica Neue,Helvetica,sans-serif; font-size:48px; text-anchor:end;" transform="rotate(0, 89.7545, 558.408)" x="89.7545" y="558.408">6</text>
</g>
<g clip-path="url(#clip7500)">
<text style="fill:#000000; fill-opacity:1; font-family:Arial,Helvetica Neue,Helvetica,sans-serif; font-size:48px; text-anchor:end;" transform="rotate(0, 89.7545, 331.957)" x="89.7545" y="331.957">7</text>
</g>
<g clip-path="url(#clip7500)">
<text style="fill:#000000; fill-opacity:1; font-family:Arial,Helvetica Neue,Helvetica,sans-serif; font-size:48px; text-anchor:end;" transform="rotate(0, 89.7545, 105.505)" x="89.7545" y="105.505">8</text>
</g>
<circle clip-path="url(#clip7502)" style="fill:#000000; stroke:none; fill-opacity:1" cx="177.122" cy="1446.71" r="18"/>
<circle clip-path="url(#clip7502)" style="fill:#14d0ff; stroke:none; fill-opacity:1" cx="177.122" cy="1446.71" r="14"/>
<circle clip-path="url(#clip7502)" style="fill:#000000; stroke:none; fill-opacity:1" cx="529.167" cy="1220.26" r="18"/>
<circle clip-path="url(#clip7502)" style="fill:#14d0ff; stroke:none; fill-opacity:1" cx="529.167" cy="1220.26" r="14"/>
<circle clip-path="url(#clip7502)" style="fill:#000000; stroke:none; fill-opacity:1" cx="881.211" cy="993.811" r="18"/>
<circle clip-path="url(#clip7502)" style="fill:#14d0ff; stroke:none; fill-opacity:1" cx="881.211" cy="993.811" r="14"/>
<circle clip-path="url(#clip7502)" style="fill:#000000; stroke:none; fill-opacity:1" cx="1233.26" cy="767.359" r="18"/>
<circle clip-path="url(#clip7502)" style="fill:#14d0ff; stroke:none; fill-opacity:1" cx="1233.26" cy="767.359" r="14"/>
<circle clip-path="url(#clip7502)" style="fill:#000000; stroke:none; fill-opacity:1" cx="1585.3" cy="540.908" r="18"/>
<circle clip-path="url(#clip7502)" style="fill:#14d0ff; stroke:none; fill-opacity:1" cx="1585.3" cy="540.908" r="14"/>
<circle clip-path="url(#clip7502)" style="fill:#000000; stroke:none; fill-opacity:1" cx="1937.34" cy="314.457" r="18"/>
<circle clip-path="url(#clip7502)" style="fill:#14d0ff; stroke:none; fill-opacity:1" cx="1937.34" cy="314.457" r="14"/>
<circle clip-path="url(#clip7502)" style="fill:#000000; stroke:none; fill-opacity:1" cx="2289.39" cy="88.0053" r="18"/>
<circle clip-path="url(#clip7502)" style="fill:#14d0ff; stroke:none; fill-opacity:1" cx="2289.39" cy="88.0053" r="14"/>
<circle clip-path="url(#clip7502)" style="fill:#000000; stroke:none; fill-opacity:1" cx="177.122" cy="1107.04" r="18"/>
<circle clip-path="url(#clip7502)" style="fill:#ffa478; stroke:none; fill-opacity:1" cx="177.122" cy="1107.04" r="14"/>
<circle clip-path="url(#clip7502)" style="fill:#000000; stroke:none; fill-opacity:1" cx="529.167" cy="993.811" r="18"/>
<circle clip-path="url(#clip7502)" style="fill:#ffa478; stroke:none; fill-opacity:1" cx="529.167" cy="993.811" r="14"/>
<circle clip-path="url(#clip7502)" style="fill:#000000; stroke:none; fill-opacity:1" cx="881.211" cy="880.585" r="18"/>
<circle clip-path="url(#clip7502)" style="fill:#ffa478; stroke:none; fill-opacity:1" cx="881.211" cy="880.585" r="14"/>
<circle clip-path="url(#clip7502)" style="fill:#000000; stroke:none; fill-opacity:1" cx="1233.26" cy="767.359" r="18"/>
<circle clip-path="url(#clip7502)" style="fill:#ffa478; stroke:none; fill-opacity:1" cx="1233.26" cy="767.359" r="14"/>
<circle clip-path="url(#clip7502)" style="fill:#000000; stroke:none; fill-opacity:1" cx="1585.3" cy="654.134" r="18"/>
<circle clip-path="url(#clip7502)" style="fill:#ffa478; stroke:none; fill-opacity:1" cx="1585.3" cy="654.134" r="14"/>
<circle clip-path="url(#clip7502)" style="fill:#000000; stroke:none; fill-opacity:1" cx="1937.34" cy="540.908" r="18"/>
<circle clip-path="url(#clip7502)" style="fill:#ffa478; stroke:none; fill-opacity:1" cx="1937.34" cy="540.908" r="14"/>
<circle clip-path="url(#clip7502)" style="fill:#000000; stroke:none; fill-opacity:1" cx="2289.39" cy="427.682" r="18"/>
<circle clip-path="url(#clip7502)" style="fill:#ffa478; stroke:none; fill-opacity:1" cx="2289.39" cy="427.682" r="14"/>
<circle clip-path="url(#clip7502)" style="fill:#000000; stroke:none; fill-opacity:1" cx="177.122" cy="767.359" r="18"/>
<circle clip-path="url(#clip7502)" style="fill:#a2d566; stroke:none; fill-opacity:1" cx="177.122" cy="767.359" r="14"/>
<circle clip-path="url(#clip7502)" style="fill:#000000; stroke:none; fill-opacity:1" cx="529.167" cy="767.359" r="18"/>
<circle clip-path="url(#clip7502)" style="fill:#a2d566; stroke:none; fill-opacity:1" cx="529.167" cy="767.359" r="14"/>
<circle clip-path="url(#clip7502)" style="fill:#000000; stroke:none; fill-opacity:1" cx="881.211" cy="767.359" r="18"/>
<circle clip-path="url(#clip7502)" style="fill:#a2d566; stroke:none; fill-opacity:1" cx="881.211" cy="767.359" r="14"/>
<circle clip-path="url(#clip7502)" style="fill:#000000; stroke:none; fill-opacity:1" cx="1233.26" cy="767.359" r="18"/>
<circle clip-path="url(#clip7502)" style="fill:#a2d566; stroke:none; fill-opacity:1" cx="1233.26" cy="767.359" r="14"/>
<circle clip-path="url(#clip7502)" style="fill:#000000; stroke:none; fill-opacity:1" cx="1585.3" cy="767.359" r="18"/>
<circle clip-path="url(#clip7502)" style="fill:#a2d566; stroke:none; fill-opacity:1" cx="1585.3" cy="767.359" r="14"/>
<circle clip-path="url(#clip7502)" style="fill:#000000; stroke:none; fill-opacity:1" cx="1937.34" cy="767.359" r="18"/>
<circle clip-path="url(#clip7502)" style="fill:#a2d566; stroke:none; fill-opacity:1" cx="1937.34" cy="767.359" r="14"/>
<circle clip-path="url(#clip7502)" style="fill:#000000; stroke:none; fill-opacity:1" cx="2289.39" cy="767.359" r="18"/>
<circle clip-path="url(#clip7502)" style="fill:#a2d566; stroke:none; fill-opacity:1" cx="2289.39" cy="767.359" r="14"/>
<circle clip-path="url(#clip7502)" style="fill:#000000; stroke:none; fill-opacity:1" cx="177.122" cy="88.0053" r="18"/>
<circle clip-path="url(#clip7502)" style="fill:#fda7fe; stroke:none; fill-opacity:1" cx="177.122" cy="88.0053" r="14"/>
<circle clip-path="url(#clip7502)" style="fill:#000000; stroke:none; fill-opacity:1" cx="529.167" cy="314.457" r="18"/>
<circle clip-path="url(#clip7502)" style="fill:#fda7fe; stroke:none; fill-opacity:1" cx="529.167" cy="314.457" r="14"/>
<circle clip-path="url(#clip7502)" style="fill:#000000; stroke:none; fill-opacity:1" cx="881.211" cy="540.908" r="18"/>
<circle clip-path="url(#clip7502)" style="fill:#fda7fe; stroke:none; fill-opacity:1" cx="881.211" cy="540.908" r="14"/>
<circle clip-path="url(#clip7502)" style="fill:#000000; stroke:none; fill-opacity:1" cx="1233.26" cy="767.359" r="18"/>
<circle clip-path="url(#clip7502)" style="fill:#fda7fe; stroke:none; fill-opacity:1" cx="1233.26" cy="767.359" r="14"/>
<circle clip-path="url(#clip7502)" style="fill:#000000; stroke:none; fill-opacity:1" cx="1585.3" cy="993.811" r="18"/>
<circle clip-path="url(#clip7502)" style="fill:#fda7fe; stroke:none; fill-opacity:1" cx="1585.3" cy="993.811" r="14"/>
<circle clip-path="url(#clip7502)" style="fill:#000000; stroke:none; fill-opacity:1" cx="1937.34" cy="1220.26" r="18"/>
<circle clip-path="url(#clip7502)" style="fill:#fda7fe; stroke:none; fill-opacity:1" cx="1937.34" cy="1220.26" r="14"/>
<circle clip-path="url(#clip7502)" style="fill:#000000; stroke:none; fill-opacity:1" cx="2289.39" cy="1446.71" r="18"/>
<circle clip-path="url(#clip7502)" style="fill:#fda7fe; stroke:none; fill-opacity:1" cx="2289.39" cy="1446.71" r="14"/>
<path clip-path="url(#clip7500)" d="
M2006 433.164 L2280.76 433.164 L2280.76 130.764 L2006 130.764  Z
  " fill="#000000" fill-rule="evenodd" fill-opacity="0"/>
<polyline clip-path="url(#clip7500)" style="stroke:#000000; stroke-width:4; stroke-opacity:1; fill:none" points="
  2006,433.164 2280.76,433.164 2280.76,130.764 2006,130.764 2006,433.164 
  "/>
<circle clip-path="url(#clip7500)" style="fill:#000000; stroke:none; fill-opacity:1" cx="2114" cy="191.244" r="25"/>
<circle clip-path="url(#clip7500)" style="fill:#14d0ff; stroke:none; fill-opacity:1" cx="2114" cy="191.244" r="21"/>
<g clip-path="url(#clip7500)">
<text style="fill:#000000; fill-opacity:1; font-family:Arial,Helvetica Neue,Helvetica,sans-serif; font-size:48px; text-anchor:start;" transform="rotate(0, 2198, 208.744)" x="2198" y="208.744">A</text>
</g>
<circle clip-path="url(#clip7500)" style="fill:#000000; stroke:none; fill-opacity:1" cx="2114" cy="251.724" r="25"/>
<circle clip-path="url(#clip7500)" style="fill:#ffa478; stroke:none; fill-opacity:1" cx="2114" cy="251.724" r="21"/>
<g clip-path="url(#clip7500)">
<text style="fill:#000000; fill-opacity:1; font-family:Arial,Helvetica Neue,Helvetica,sans-serif; font-size:48px; text-anchor:start;" transform="rotate(0, 2198, 269.224)" x="2198" y="269.224">B</text>
</g>
<circle clip-path="url(#clip7500)" style="fill:#000000; stroke:none; fill-opacity:1" cx="2114" cy="312.204" r="25"/>
<circle clip-path="url(#clip7500)" style="fill:#a2d566; stroke:none; fill-opacity:1" cx="2114" cy="312.204" r="21"/>
<g clip-path="url(#clip7500)">
<text style="fill:#000000; fill-opacity:1; font-family:Arial,Helvetica Neue,Helvetica,sans-serif; font-size:48px; text-anchor:start;" transform="rotate(0, 2198, 329.704)" x="2198" y="329.704">C</text>
</g>
<circle clip-path="url(#clip7500)" style="fill:#000000; stroke:none; fill-opacity:1" cx="2114" cy="372.684" r="25"/>
<circle clip-path="url(#clip7500)" style="fill:#fda7fe; stroke:none; fill-opacity:1" cx="2114" cy="372.684" r="21"/>
<g clip-path="url(#clip7500)">
<text style="fill:#000000; fill-opacity:1; font-family:Arial,Helvetica Neue,Helvetica,sans-serif; font-size:48px; text-anchor:start;" transform="rotate(0, 2198, 390.184)" x="2198" y="390.184">D</text>
</g>
</svg>
